<svg width="329" height="123" viewBox="0 0 329 123" fill="none" xmlns="http://www.w3.org/2000/svg">
<path d="M92.3804 50.9958L62.5996 33.8016C62.5824 33.7918 62.564 33.7893 62.5467 33.7795C62.3967 33.6983 62.2405 33.627 62.0695 33.5815H62.0683C62.0621 33.579 62.056 33.579 62.0498 33.5778C61.8838 33.5347 61.7177 33.5175 61.5517 33.5126C61.5197 33.5113 61.4902 33.5101 61.4582 33.5113C61.2848 33.515 61.115 33.5347 60.949 33.5778C60.9342 33.5815 60.9194 33.5876 60.9047 33.5925C60.7399 33.6393 60.5824 33.7045 60.4336 33.7869C60.4225 33.793 60.4102 33.7955 60.3992 33.8016L60.3463 33.8324C60.3438 33.8336 60.3426 33.8348 60.3401 33.8361L30.6196 50.9958C29.9382 51.3882 29.52 52.1151 29.52 52.9011V87.2882C29.52 88.0741 29.9394 88.8011 30.6196 89.1934C31.301 89.587 32.1387 89.587 32.8201 89.1934L61.5 72.6339L90.1799 89.1934C90.5206 89.3902 90.8995 89.4886 91.2795 89.4886C91.6596 89.4886 92.0397 89.3902 92.3792 89.1934C93.0606 88.8011 93.4788 88.0741 93.4788 87.2882V52.9011C93.48 52.1151 93.0606 51.3882 92.3804 50.9958ZM89.0803 79.0767L67.511 41.7179L89.0803 54.1717V79.0767ZM59.2995 68.8234L37.7315 81.2759L59.2995 43.9171V68.8234ZM63.7005 43.9184L85.2685 81.2772L63.7005 68.8234V43.9184ZM55.489 41.7179L33.9197 79.0767V54.1704L55.489 41.7179Z" fill="#002358"/>
<path d="M134.772 77.396C131.364 77.396 128.784 76.652 127.032 75.164C125.28 73.676 124.32 71.6 124.152 68.936H129.732C129.876 70.256 130.308 71.288 131.028 72.032C131.772 72.776 133.02 73.148 134.772 73.148C136.044 73.148 137.064 72.836 137.832 72.212C138.624 71.564 139.02 70.736 139.02 69.728C139.02 68.696 138.684 67.952 138.012 67.496C137.34 67.04 136.056 66.668 134.16 66.38C130.8 65.948 128.412 65.156 126.996 64.004C125.58 62.828 124.872 61.016 124.872 58.568C124.872 56.336 125.724 54.5 127.428 53.06C129.156 51.62 131.424 50.9 134.232 50.9C137.136 50.9 139.404 51.548 141.036 52.844C142.692 54.14 143.64 56.06 143.88 58.604H138.516C138.156 56.324 136.728 55.184 134.232 55.184C132.984 55.184 132.024 55.448 131.352 55.976C130.704 56.504 130.38 57.212 130.38 58.1C130.38 59.06 130.692 59.78 131.316 60.26C131.964 60.716 133.248 61.088 135.168 61.376C138.48 61.808 140.88 62.588 142.368 63.716C143.856 64.82 144.6 66.644 144.6 69.188C144.6 71.54 143.7 73.496 141.9 75.056C140.124 76.616 137.748 77.396 134.772 77.396ZM145.869 77L154.329 51.26H161.925L170.277 77H164.193L162.429 71.276H153.105L151.341 77H145.869ZM157.785 56.012L154.365 67.136H161.169L157.785 56.012ZM179.627 72.464H182.003C187.091 72.464 189.635 69.716 189.635 64.22V63.932C189.635 61.22 189.011 59.192 187.763 57.848C186.539 56.48 184.595 55.796 181.931 55.796H179.627V72.464ZM173.795 77V51.26H182.219C186.635 51.26 189.983 52.376 192.263 54.608C194.567 56.84 195.719 59.924 195.719 63.86V64.148C195.719 68.108 194.567 71.24 192.263 73.544C189.959 75.848 186.599 77 182.183 77H173.795ZM207.897 77V51.26H213.729V72.428H224.205V77H207.897ZM227.718 77V58.172H232.902V77H227.718ZM232.398 54.824C231.822 55.352 231.114 55.616 230.274 55.616C229.434 55.616 228.726 55.352 228.15 54.824C227.598 54.272 227.322 53.588 227.322 52.772C227.322 51.956 227.598 51.284 228.15 50.756C228.726 50.204 229.434 49.928 230.274 49.928C231.114 49.928 231.822 50.204 232.398 50.756C232.974 51.284 233.262 51.956 233.262 52.772C233.262 53.588 232.974 54.272 232.398 54.824ZM248.931 77.396C247.515 77.396 246.279 77.084 245.223 76.46C244.191 75.836 243.423 75.02 242.919 74.012V77H237.699V49.64H242.919V61.124C243.471 60.164 244.275 59.36 245.331 58.712C246.411 58.064 247.611 57.74 248.931 57.74C251.331 57.74 253.299 58.592 254.835 60.296C256.371 62 257.139 64.364 257.139 67.388V67.676C257.139 70.7 256.371 73.076 254.835 74.804C253.299 76.532 251.331 77.396 248.931 77.396ZM247.383 73.328C248.823 73.328 249.927 72.848 250.695 71.888C251.463 70.928 251.847 69.536 251.847 67.712V67.424C251.847 65.576 251.439 64.172 250.623 63.212C249.807 62.228 248.715 61.736 247.347 61.736C245.931 61.736 244.803 62.228 243.963 63.212C243.147 64.172 242.739 65.576 242.739 67.424V67.712C242.739 69.56 243.147 70.964 243.963 71.924C244.779 72.86 245.919 73.328 247.383 73.328ZM260.62 77V58.172H265.84V61.772C267.04 59.204 269.068 57.908 271.924 57.884V62.744C269.908 62.72 268.384 63.092 267.352 63.86C266.344 64.604 265.84 65.84 265.84 67.568V77H260.62ZM280.075 77.396C278.227 77.396 276.715 76.928 275.539 75.992C274.363 75.056 273.775 73.652 273.775 71.78C273.775 67.748 277.039 65.732 283.567 65.732H285.691V64.976C285.691 63.8 285.463 62.936 285.007 62.384C284.551 61.808 283.759 61.52 282.631 61.52C280.735 61.52 279.667 62.408 279.427 64.184H274.495C274.639 62.048 275.479 60.44 277.015 59.36C278.551 58.28 280.531 57.74 282.955 57.74C288.211 57.74 290.839 60.068 290.839 64.724V77H285.763V74.732C284.491 76.508 282.595 77.396 280.075 77.396ZM281.623 73.76C282.799 73.76 283.771 73.46 284.539 72.86C285.307 72.26 285.691 71.444 285.691 70.412V68.828H283.675C282.091 68.828 280.891 69.032 280.075 69.44C279.283 69.848 278.887 70.532 278.887 71.492C278.887 73.004 279.799 73.76 281.623 73.76ZM295.32 77V58.172H300.54V61.772C301.74 59.204 303.768 57.908 306.624 57.884V62.744C304.608 62.72 303.084 63.092 302.052 63.86C301.044 64.604 300.54 65.84 300.54 67.568V77H295.32ZM312.602 83.408L315.914 75.092L308.426 58.172H314.042L318.614 69.476L322.826 58.172H327.83L317.642 83.408H312.602Z" fill="#002358"/>
</svg>
